# xmcd CD database file
#
# Track frame offsets:
#	150
#	19680
#	34669
#	47444
#	61502
#	90325
#	114956
#	134413
#	153756
#
# Disc length: 2482 seconds
#
# Revision: 0
# Processed by: cddbd v1.4PL0 Copyright (c) Steve Scherf et al.
# Submitted via: CDex 1.40Release
#
DISCID=5909b009
DTITLE=Bill Frisell, Vernon Reid - Smash and Scatteration
DYEAR=1900
DGENRE=Blues
TTITLE0=Landscapes In Alternative History
TTITLE1=Size 10 1/2 Sneaks
TTITLE2=Amarillo 
TTITLE3=Last Nights Of Paris
TTITLE4=Burden Of Dreams
TTITLE5=Dark Skin
TTITLE6=Fr, Fr, Frisell
TTITLE7=Small Hands
TTITLE8=Black Light
EXTD=ID3G: 0
EXTT0=
EXTT1=
EXTT2=
EXTT3=
EXTT4=
EXTT5=
EXTT6=
EXTT7=
EXTT8=
PLAYORDER=
